<?xml version="1.0" encoding="utf-8"?>
<!-- Generator: Adobe Illustrator 26.2.1, SVG Export Plug-In . SVG Version: 6.00 Build 0)  -->
<svg version="1.1" id="Layer_1" xmlns="http://www.w3.org/2000/svg" xmlns:xlink="http://www.w3.org/1999/xlink" x="0px" y="0px"
	 viewBox="0 0 24 24" style="enable-background:new 0 0 24 24;" xml:space="preserve">
<style type="text/css">
	.st0{fill-rule:evenodd;clip-rule:evenodd;}
</style>
<path class="st0" d="M19.8,10.3c0,4.5-3.9,8.3-8.9,8.3c-5,0-8.9-3.8-8.9-8.3C2,5.8,5.9,2,10.9,2C15.9,2,19.8,5.8,19.8,10.3z
	 M17.1,18.8c-1.8,1.2-3.9,1.8-6.2,1.8C4.9,20.6,0,16,0,10.3C0,4.6,4.9,0,10.9,0c6,0,10.9,4.6,10.9,10.3c0,2.8-1.2,5.3-3.1,7.2
	l5.1,4.8l-1.4,1.5L17.1,18.8z"/>
</svg>
